Coordinates
version=1
nRows=17
nColumns=38
inDegrees=no

Units are S.I. units (second, meters, Newtons, ...)
If the header above contains a line with 'inDegrees', this indicates whether rotational values are in degrees (yes) or radians (no).

endheader
time	pelvis_tilt	pelvis_list	pelvis_rotation	pelvis_tx	pelvis_ty	pelvis_tz	hip_flexion_r	hip_adduction_r	hip_rotation_r	knee_angle_r	ankle_angle_r	subtalar_angle_r	mtp_angle_r	hip_flexion_l	hip_adduction_l	hip_rotation_l	knee_angle_l	ankle_angle_l	subtalar_angle_l	mtp_angle_l	lumbar_extension	lumbar_bending	lumbar_rotation	arm_flex_r	arm_add_r	arm_rot_r	elbow_flex_r	pro_sup_r	wrist_flex_r	wrist_dev_r	arm_flex_l	arm_add_l	arm_rot_l	elbow_flex_l	pro_sup_l	wrist_flex_l	wrist_dev_l
0.64	-0.402403	1.43174	-1.1803	0.784094	1.26221	1.04372	0.0345466	0.0333759	-0.1963	0.338074	0.0294094	0	0	-0.00121408	-0.152779	-0.315341	1.02302	-0.126834	0	0	-0.570875	0.17785	-0.0435433	-0.137518	-0.444486	0.186283	0.94916	0.973656	0	0	0.00985312	-0.549144	0.206148	0.911791	1.23667	0	0
0.65	-0.363336	1.43159	-1.22049	0.782399	1.25007	1.04591	0.0138145	0.0279423	-0.202894	0.329475	0.0291826	0	0	0.0170607	-0.146799	-0.313116	1.01679	-0.111222	0	0	-0.573388	0.169655	-0.0435304	-0.135878	-0.442128	0.188744	0.945727	0.971087	0	0	0.00844743	-0.54984	0.217759	0.910606	1.2316	0	0
0.66	-0.33251	1.43337	-1.2536	0.780611	1.23801	1.0478	-0.00408028	0.0244053	-0.208856	0.318537	0.0287646	0	0	0.0370884	-0.141154	-0.311644	1.00626	-0.098961	0	0	-0.573768	0.161377	-0.0425836	-0.134499	-0.439787	0.19102	0.942427	0.969416	0	0	0.00668816	-0.550354	0.228897	0.909349	1.22518	0	0
0.67	-0.306178	1.43577	-1.28242	0.778786	1.22597	1.04945	-0.0220715	0.0219839	-0.212814	0.304806	0.0292057	0	0	0.0572089	-0.136126	-0.310157	0.991508	-0.0901651	0	0	-0.573224	0.153651	-0.0415359	-0.133694	-0.437667	0.193039	0.94016	0.968961	0	0	0.00452339	-0.550925	0.239362	0.907974	1.21665	0	0
0.68	-0.28609	1.4359	-1.30346	0.777263	1.21382	1.05129	-0.0407189	0.0207567	-0.218912	0.294082	0.0318362	0	0	0.0741042	-0.132657	-0.308042	0.971602	-0.086323	0	0	-0.57434	0.148429	-0.0415867	-0.132614	-0.436187	0.195489	0.937985	0.97021	0	0	0.00218481	-0.551273	0.24946	0.906516	1.20548	0	0
0.69	-0.268924	1.43642	-1.32211	0.775812	1.20171	1.05286	-0.0610329	0.0204146	-0.224121	0.278423	0.0249282	0	0	0.0904626	-0.130593	-0.310353	0.947739	-0.078355	0	0	-0.577207	0.143484	-0.0392456	-0.134216	-0.436135	0.19501	0.940745	0.965971	0	0	-0.00147819	-0.546521	0.24467	0.906496	1.21776	0	0
0.7	-0.255398	1.43669	-1.33762	0.774399	1.18953	1.0542	-0.0820015	0.0206001	-0.229044	0.261681	0.0196204	0	0	0.10564	-0.131245	-0.319205	0.920757	-0.0709838	0	0	-0.579368	0.138754	-0.037041	-0.135845	-0.436915	0.196044	0.943763	0.961879	0	0	-0.00604005	-0.543811	0.242784	0.907783	1.22378	0	0
0.71	-0.244646	1.43465	-1.35148	0.772998	1.17728	1.05544	-0.105359	0.021396	-0.234048	0.244609	0.00889699	0	0	0.116761	-0.137294	-0.340153	0.892423	-0.0618928	0	0	-0.584761	0.134086	-0.0337587	-0.136088	-0.443808	0.20749	0.95009	0.938069	0	0	-0.0126714	-0.540978	0.235806	0.912587	1.23299	0	0
0.72	-0.229237	1.43514	-1.36914	0.771672	1.16514	1.05643	-0.124795	0.0206431	-0.24006	0.230369	0.00899626	0	0	0.129677	-0.138039	-0.353569	0.858789	-0.0618575	0	0	-0.585936	0.12934	-0.0308315	-0.14097	-0.441167	0.19821	0.953936	0.950385	0	0	-0.0147165	-0.539858	0.239512	0.911827	1.23056	0	0
0.73	-0.21401	1.43597	-1.38706	0.770375	1.1531	1.05725	-0.143264	0.0198078	-0.243758	0.21669	0.00459728	0	0	0.142004	-0.13592	-0.363908	0.820453	-0.0603697	0	0	-0.58787	0.123953	-0.0282254	-0.14278	-0.442875	0.198919	0.958168	0.945057	0	0	-0.018615	-0.537576	0.235856	0.912826	1.23273	0	0
0.74	-0.201493	1.43733	-1.40278	0.769099	1.14109	1.05784	-0.160387	0.0190518	-0.245563	0.204074	0.000519503	0	0	0.154093	-0.132962	-0.37511	0.778773	-0.0616966	0	0	-0.589399	0.118727	-0.0255074	-0.144167	-0.444888	0.199636	0.962322	0.940491	0	0	-0.0231627	-0.534483	0.229408	0.913649	1.23473	0	0
0.75	-0.189637	1.43867	-1.41845	0.767859	1.12908	1.05823	-0.177275	0.0180806	-0.245964	0.191746	-0.00368512	0	0	0.164985	-0.129631	-0.389545	0.733805	-0.066325	0	0	-0.590891	0.113417	-0.0227491	-0.145151	-0.447399	0.200694	0.966539	0.936412	0	0	-0.028353	-0.530409	0.219989	0.914087	1.23745	0	0
0.76	-0.176985	1.43962	-1.43602	0.766577	1.11717	1.05837	-0.194427	0.0164769	-0.245971	0.179781	-0.00325801	0	0	0.174312	-0.126104	-0.408438	0.686206	-0.0773081	0	0	-0.592579	0.108216	-0.0168719	-0.150516	-0.447684	0.191467	0.97329	0.944032	0	0	-0.0283598	-0.529332	0.22393	0.912335	1.22253	0	0
0.77	-0.171727	1.44098	-1.44662	0.765339	1.10525	1.05827	-0.210608	0.0152175	-0.248647	0.168746	-0.0102583	0	0	0.183364	-0.122848	-0.428971	0.636658	-0.0875696	0	0	-0.594921	0.102964	-0.0140276	-0.149603	-0.451636	0.19461	0.978046	0.936536	0	0	-0.0364443	-0.521888	0.202248	0.913666	1.23453	0	0
0.78	-0.164508	1.44266	-1.45795	0.764213	1.09322	1.05793	-0.225977	0.0135529	-0.254208	0.159268	-0.0135209	0	0	0.191765	-0.118515	-0.449953	0.584999	-0.101276	0	0	-0.596195	0.0978578	-0.0133764	-0.14746	-0.454996	0.19907	0.980873	0.931073	0	0	-0.0449199	-0.515501	0.181845	0.914799	1.24084	0	0
0.79	-0.156628	1.44519	-1.46863	0.763136	1.08106	1.05718	-0.240024	0.0117942	-0.263847	0.15131	-0.0147723	0	0	0.201008	-0.112068	-0.46578	0.532514	-0.115841	0	0	-0.595511	0.0929824	-0.0142358	-0.145487	-0.457604	0.203533	0.982761	0.926705	0	0	-0.0535409	-0.510219	0.162982	0.915467	1.24406	0	0
0.8	-0.16166	1.44773	-1.46635	0.762136	1.06895	1.05632	-0.253167	0.0120364	-0.266555	0.144369	-0.0152471	0	0	0.209481	-0.105631	-0.4789	0.476993	-0.130314	0	0	-0.595242	0.0898071	-0.0150277	-0.142237	-0.460442	0.208426	0.984055	0.92339	0	0	-0.0616509	-0.504702	0.1445	0.915574	1.24574	0	0
